<svg width="16" height="16" viewBox="0 0 16 16" fill="none" xmlns="http://www.w3.org/2000/svg">
    <g clip-path="url(#clip0)">
        <path d="M8 0.5C9.98912 0.5 11.8968 1.29018 13.3033 2.6967C14.7098 4.10322 15.5 6.01088 15.5 8C15.5 9.98912 14.7098 11.8968 13.3033 13.3033C11.8968 14.7098 9.98912 15.5 8 15.5C6.01088 15.5 4.10322 14.7098 2.6967 13.3033C1.29018 11.8968 0.5 9.98912 0.5 8C0.5 6.01088 1.29018 4.10322 2.6967 2.6967C4.10322 1.29018 6.01088 0.5 8 0.5V0.5ZM8 1.725C4.55375 1.725 1.75 4.52875 1.75 8C1.74839 9.31932 2.16266 10.6056 2.93393 11.676C3.70521 12.7464 4.79424 13.5465 6.04625 13.9625C6.06491 13.9653 6.08368 13.9674 6.1025 13.9688C6.35625 13.9812 6.45125 13.8075 6.45125 13.6562L6.4425 12.5887C4.705 12.9675 4.3375 11.7463 4.3375 11.7463C4.05375 11.0212 3.64375 10.8287 3.64375 10.8287C3.07625 10.4387 3.68625 10.4462 3.68625 10.4462C4.1425 10.4787 4.44125 10.8063 4.57125 10.9838L4.64375 11.0938C5.20125 12.0525 6.10625 11.7762 6.4625 11.6162C6.52 11.21 6.68 10.9337 6.85875 10.7762C5.47125 10.6175 4.0125 10.0787 4.0125 7.67375C4.0125 6.98875 4.25625 6.42875 4.65625 5.98875L4.61875 5.8825C4.53875 5.62875 4.42875 5.06 4.7175 4.3275L4.7675 4.31875C4.9225 4.29875 5.4525 4.3025 6.43625 4.97125C6.94584 4.83187 7.47169 4.76083 8 4.76C8.53125 4.7625 9.06625 4.8325 9.565 4.9725C10.7587 4.16 11.2825 4.3275 11.2825 4.3275C11.6225 5.1925 11.4075 5.83 11.345 5.99C11.745 6.4275 11.9862 6.98875 11.9862 7.67375C11.9862 10.0862 10.525 10.6163 9.1325 10.7712C9.3575 10.965 9.5575 11.3488 9.5575 11.9338L9.55 13.6562C9.55 13.8187 9.65625 14.0088 9.95375 13.9625C11.2058 13.5465 12.2948 12.7464 13.0661 11.676C13.8373 10.6056 14.2516 9.31932 14.25 8C14.25 4.52875 11.4462 1.725 8 1.725Z" fill="#101010"/>
    </g>
    <defs>
        <clipPath id="clip0">
            <rect width="15" height="15" fill="white" transform="translate(0.5 0.5)"/>
        </clipPath>
    </defs>
</svg>
