<svg width="42" height="38" viewBox="0 0 42 38" fill="none" xmlns="http://www.w3.org/2000/svg">
    <path fill-rule="evenodd" clip-rule="evenodd" d="M0 5.3778C0 4.99395 0.21971 4.64398 0.565411 4.47717L8.40916 0.692246C9.07315 0.371846 9.84375 0.855627 9.84375 1.59287V36.3112C9.84375 36.9893 9.18307 37.4708 8.53751 37.2631L0.693764 34.7398C0.280327 34.6068 0 34.2222 0 33.7879V5.3778ZM15.0938 7.7419C15.0938 7.2856 15.4026 6.88718 15.8445 6.77345L23.6883 4.75483C24.3211 4.59197 24.9375 5.06985 24.9375 5.72327V31.6027C24.9375 32.2686 24.299 32.7485 23.6594 32.5633L15.8156 30.2923C15.388 30.1685 15.0938 29.777 15.0938 29.3318V7.7419ZM30.1875 11.1333C30.1875 10.581 30.6352 10.1333 31.1875 10.1333H39.9016C40.7432 10.1333 41.2084 11.1095 40.6783 11.7632L31.9642 22.509C31.3709 23.2407 30.1875 22.8211 30.1875 21.8792V11.1333Z" fill="#6144E5"/>
</svg>
